# xmcd
#
# Track frame offsets:
#	150
#	19710
#	42023
#	55940
#	70093
#	91479
#	110646
#	129295
#	146118
#	165763
#
# Disc length: 2446 seconds
# Revision: 0
# Processed by: cddbd v1.5.2PL0 Copyright (c) Steve Scherf et al.
# Submitted via: dBpowerAMP V12.0
#
DISCID=7d098c0a
DTITLE=Willie May - Thirteen
DYEAR=2912
DGENRE=Blues
TTITLE0=Dealin' With The Devil
TTITLE1=Lonely Like Me
TTITLE2=Smile
TTITLE3=Devil's Daughter
TTITLE4=There It Goes
TTITLE5=I'm a Tragedy
TTITLE6=How Can It Be
TTITLE7=Time To Go
TTITLE8=All Alone
TTITLE9=In The Garden
EXTD=
EXTT0=
EXTT1=
EXTT2=
EXTT3=
EXTT4=
EXTT5=
EXTT6=
EXTT7=
EXTT8=
EXTT9=
PLAYORDER=
